<svg width="53" height="47" viewBox="0 0 53 47" fill="none" xmlns="http://www.w3.org/2000/svg">
<path fill-rule="evenodd" clip-rule="evenodd" d="M0.323184 0.562191H6.89605C12.0671 0.562191 16.5118 4.22906 17.4946 9.30582L20.8455 26.6161H45.7311C47.3062 26.6161 48.583 25.3392 48.583 23.7641V12.5982C48.583 11.0231 47.3062 9.7462 45.7311 9.7462H22.1613V5.52486H45.7311C49.6376 5.52486 52.8044 8.6917 52.8044 12.5982V23.7641C52.8044 27.6706 49.6376 30.8374 45.7311 30.8374H22.7653C23.9688 32.0696 25.645 32.8193 27.4697 32.8193H50.6941V37.0407H27.4697C22.2987 37.0407 17.854 33.3738 16.8712 28.2971L13.3502 10.1081C12.7517 7.01652 10.045 4.78353 6.89605 4.78353H0.323184V0.562191ZM22.4774 46.4378C24.549 46.4378 26.2284 44.4937 26.2284 42.0955C26.2284 39.6973 24.549 37.7532 22.4774 37.7532C20.4057 37.7532 18.7263 39.6973 18.7263 42.0955C18.7263 44.4937 20.4057 46.4378 22.4774 46.4378ZM48.1109 46.4378C50.1825 46.4378 51.8619 44.4937 51.8619 42.0955C51.8619 39.6973 50.1825 37.7532 48.1109 37.7532C46.0392 37.7532 44.3599 39.6973 44.3599 42.0955C44.3599 44.4937 46.0392 46.4378 48.1109 46.4378Z" fill="#FFB800"/>
</svg>
